<?xml version="1.0" standalone="no"?>
<!DOCTYPE svg PUBLIC "-//W3C//DTD SVG 20010904//EN"
 "http://www.w3.org/TR/2001/REC-SVG-20010904/DTD/svg10.dtd">
<svg version="1.0" xmlns="http://www.w3.org/2000/svg"
 width="700.000000pt" height="700.000000pt" viewBox="0 0 700.000000 700.000000"
 preserveAspectRatio="xMidYMid meet">
<metadata>
Created by potrace 1.14, written by Peter Selinger 2001-2017
</metadata>
<g transform="translate(0.000000,700.000000) scale(0.100000,-0.100000)"
fill="#000000" stroke="none">
<path d="M1395 6940 c-83 -4 -118 -10 -141 -24 -38 -23 -84 -91 -85 -126 0
-14 -1 -116 -1 -227 -1 -140 -4 -203 -12 -204 -6 0 -83 -1 -172 -2 -157 -2
-161 -3 -202 -29 -73 -49 -76 -63 -82 -323 l-5 -230 -150 -1 c-164 0 -184 -4
-234 -41 -57 -43 -73 -110 -57 -233 15 -115 26 -207 32 -257 l6 -53 -98 0
c-107 -1 -127 -7 -168 -57 -20 -24 -25 -39 -21 -65 5 -39 54 -378 60 -425 3
-18 7 -50 10 -70 3 -21 14 -99 25 -173 11 -74 22 -151 24 -170 3 -19 13 -84
21 -145 9 -60 18 -123 20 -140 10 -65 76 -531 81 -564 2 -20 9 -65 14 -101 10
-66 16 -109 25 -177 3 -21 8 -53 11 -71 3 -17 7 -49 10 -69 2 -20 6 -48 9 -62
2 -14 9 -64 15 -111 6 -46 13 -87 15 -90 1 -3 6 -36 10 -75 4 -38 8 -72 10
-75 1 -3 6 -32 10 -65 4 -33 9 -69 11 -80 4 -28 13 -93 19 -139 3 -22 7 -51
10 -65 2 -14 11 -78 20 -141 23 -162 23 -160 30 -208 4 -23 8 -52 9 -65 2 -12
6 -40 10 -62 3 -22 8 -58 11 -80 2 -22 7 -51 9 -65 3 -14 8 -47 11 -75 3 -27
12 -93 20 -146 8 -53 17 -118 20 -145 3 -27 8 -56 10 -64 2 -8 7 -37 10 -65 3
-27 7 -57 10 -65 2 -8 6 -37 10 -65 3 -27 12 -95 20 -150 8 -55 17 -120 20
-145 3 -25 10 -70 15 -100 5 -30 12 -77 15 -105 13 -107 37 -251 46 -282 13
-39 53 -80 99 -99 31 -14 357 -15 2692 -15 2617 -1 2657 0 2701 19 47 21 90
70 101 113 5 24 67 438 81 544 3 22 8 51 10 65 2 14 7 45 10 70 3 25 10 74 15
110 5 36 12 83 15 105 3 22 14 101 25 175 11 74 22 151 24 170 3 19 8 53 11
75 3 22 8 58 11 80 3 22 11 81 19 130 8 50 17 113 20 140 3 28 10 75 15 105 5
30 12 78 15 105 3 28 12 91 20 140 8 50 16 108 19 130 3 22 8 57 11 78 14 103
22 153 30 212 3 22 7 54 10 70 3 17 7 46 9 65 3 19 12 85 21 145 8 61 17 124
20 140 8 63 18 131 21 149 2 11 8 54 14 96 6 42 12 85 14 96 2 10 7 42 10 69
4 28 9 61 11 75 2 14 6 48 10 75 3 28 10 77 15 110 5 33 12 80 15 105 3 25 12
86 20 135 8 50 16 109 20 133 12 94 16 123 35 252 11 74 22 151 24 170 3 19
12 80 20 135 8 55 17 119 20 143 12 91 17 119 21 142 3 14 8 61 11 105 l6 80
-35 38 c-38 40 -39 40 -180 37 l-68 -1 5 28 c3 15 8 57 11 93 4 36 8 72 10 80
3 18 17 142 20 185 5 75 -40 153 -105 183 -32 14 -66 17 -199 17 l-161 -1 0
218 c0 242 -5 269 -61 319 -46 41 -70 46 -224 47 -77 0 -149 1 -160 1 -20 1
-21 7 -22 224 0 186 -3 228 -17 255 -22 42 -64 80 -103 93 -34 11 -4090 19
-4318 9z m4205 -405 c0 -133 -3 -175 -12 -176 -17 0 -4136 -1 -4165 0 -23 1
-23 1 -23 176 l0 174 2100 0 2100 0 0 -174z m465 -585 l0 -175 -2565 0 -2565
0 -1 170 c-1 94 0 172 2 175 1 3 1156 5 2566 5 l2563 0 0 -175z m438 -409 c16
-1 18 -7 12 -48 -3 -27 -8 -64 -11 -83 -2 -19 -6 -48 -9 -65 -3 -16 -7 -55
-11 -85 -3 -30 -8 -58 -11 -62 -5 -10 -5953 -9 -5951 0 2 6 -7 113 -17 207
-17 149 -19 133 18 137 25 2 5900 1 5980 -1z m-2783 -945 c25 -4 81 -11 125
-17 127 -17 304 -54 375 -78 14 -5 52 -17 85 -27 129 -37 438 -175 524 -233
14 -10 64 -43 111 -73 346 -224 629 -562 774 -925 31 -79 69 -202 81 -265 30
-150 35 -198 36 -343 1 -139 -7 -225 -33 -345 -90 -421 -330 -797 -698 -1092
-357 -285 -799 -467 -1295 -532 -22 -3 -60 -8 -85 -12 -124 -16 -488 -10 -635
11 -22 3 -53 8 -70 10 -48 6 -107 16 -155 27 -25 5 -52 11 -60 13 -205 44
-471 144 -669 252 -86 47 -299 186 -336 220 -12 10 -50 43 -85 73 -183 155
-371 392 -472 595 -76 152 -143 352 -162 481 -4 22 -9 51 -12 64 -10 43 -13
363 -3 425 5 33 11 74 14 90 20 136 98 358 180 512 45 84 134 224 155 243 3 3
21 25 40 50 165 216 426 427 720 583 199 106 566 234 725 253 11 1 61 9 110
18 50 8 131 18 180 22 50 3 92 8 94 10 6 5 392 -4 441 -10z"/>
<path d="M3428 4155 c-2 -1 -57 -5 -123 -9 -139 -7 -159 -9 -320 -41 -122 -25
-286 -74 -385 -116 -168 -72 -424 -225 -455 -273 -39 -59 -8 -152 59 -174 46
-15 80 -1 191 72 98 66 291 158 419 201 193 64 340 91 546 102 63 3 125 9 137
14 67 25 79 148 19 198 -14 12 -81 32 -88 26z"/>
<path d="M3185 3689 c-260 -40 -460 -115 -677 -255 -76 -49 -102 -82 -100
-128 5 -129 113 -156 238 -61 95 73 317 163 493 200 107 22 146 26 328 34 32
1 82 50 88 86 8 50 -12 104 -48 126 -27 16 -47 19 -122 17 -49 -1 -139 -10
-200 -19z"/>
<path d="M3437 3184 c-1 -1 -29 -5 -62 -8 -276 -31 -514 -199 -586 -414 -22
-67 -28 -168 -13 -235 23 -107 101 -219 209 -302 135 -102 312 -156 515 -157
108 0 143 4 238 28 415 102 617 480 417 781 -107 161 -295 267 -530 299 -48 6
-183 12 -188 8z m223 -249 c60 -12 169 -62 221 -102 105 -80 146 -201 100
-296 -48 -98 -160 -177 -310 -218 -94 -26 -290 -20 -381 11 -118 40 -195 92
-246 167 -36 52 -39 60 -39 127 0 63 4 78 29 116 65 98 185 172 317 195 18 3
35 8 38 10 6 7 231 -1 271 -10z"/>
<path d="M3425 2705 c-78 -28 -96 -83 -45 -134 88 -88 290 -14 238 87 -25 49
-124 73 -193 47z"/>
<path d="M4335 2032 c-11 -2 -27 -10 -35 -17 -33 -29 -177 -108 -265 -145 -94
-41 -282 -94 -365 -105 -25 -3 -90 -8 -145 -11 -79 -5 -107 -10 -132 -27 -72
-48 -71 -157 0 -194 40 -20 195 -19 317 2 14 3 41 7 60 10 186 30 440 132 612
244 99 66 121 105 98 177 -18 54 -78 81 -145 66z"/>
<path d="M4598 1677 c-20 -12 -80 -48 -132 -80 -52 -32 -134 -76 -181 -97 -81
-38 -294 -114 -346 -124 -13 -2 -35 -7 -49 -10 -109 -25 -253 -42 -404 -47
-99 -3 -146 -39 -146 -111 0 -89 36 -120 142 -121 112 -1 233 11 398 38 193
33 464 134 650 242 230 135 258 169 225 280 -8 24 -60 53 -97 53 -12 0 -40
-10 -60 -23z"/>
</g>
</svg>
