<?xml version="1.0" encoding="utf-8"?>
<!-- Generator: Adobe Illustrator 26.3.1, SVG Export Plug-In . SVG Version: 6.00 Build 0)  -->
<svg version="1.1" id="Capa_1" xmlns="http://www.w3.org/2000/svg" xmlns:xlink="http://www.w3.org/1999/xlink" x="0px" y="0px"
     viewBox="0 0 60 60" style="enable-background:new 0 0 60 60;" xml:space="preserve">
<style type="text/css">
	.st0{fill:none;stroke:#7688e8;stroke-width:2;stroke-miterlimit:10;}
    .st1{fill:#7688e8;}
</style>
    <g>
	<path class="st1" d="M59.8,15.9l-0.4-0.4h-1.8l0.4-3.3c0-0.4-0.1-0.8-0.4-1.2c-0.3-0.3-0.7-0.5-1.1-0.5H54V7c0-0.8-0.7-1.5-1.5-1.5H50V2
		c0-0.8-0.7-1.5-1.5-1.5h-37C10.7,0.5,10,1.2,10,2v3.5H7.5C6.7,5.5,6,6.2,6,7v3.5H3.6c-0.4,0-0.8,0.2-1.1,0.5
		c-0.3,0.3-0.4,0.7-0.4,1.2l0.4,3.3H1.1c-0.3,0-0.6,0.1-0.8,0.4L0,16.3l6,41.9c0.1,0.8,0.8,1.3,1.6,1.3h44.9c0.8,0,1.5-0.6,1.6-1.4
		L60,16.8C60.1,16.5,60,16.1,59.8,15.9z M12,2.5h36v3H12C12,5.5,12,2.5,12,2.5z M8,7.5h2h40h2v3H8C8,10.5,8,7.5,8,7.5z M4.2,12.5H6
		h48h1.9l-0.4,3h-51L4.2,12.5z M29.5,54.5C18.2,54.5,9,46.9,9,37.5s9.2-17,20.5-17S50,28.1,50,37.5S40.8,54.5,29.5,54.5z"/>
        <path class="st1" d="M30.5,25.4c0-0.6-0.4-1-1-1c-4,0-7.8,1.2-10.9,3.5c-0.4,0.3-0.5,0.9-0.2,1.4c0.2,0.3,0.5,0.4,0.8,0.4
		c0.2,0,0.4-0.1,0.6-0.2c2.8-2,6.2-3.1,9.8-3.1C30.1,26.4,30.5,26,30.5,25.4z"/>
        <path class="st1" d="M30.5,29.2c0-0.6-0.4-1-1-1c-3.1,0-6,0.9-8.5,2.7c-0.4,0.3-0.5,0.9-0.2,1.4c0.2,0.3,0.5,0.4,0.8,0.4c0.2,0,0.4-0.1,0.6-0.2
		c2.1-1.5,4.7-2.3,7.3-2.3C30.1,30.2,30.5,29.8,30.5,29.2z"/>
        <path class="st1" d="M39.4,45.6c-2.8,2-6.2,3.1-9.8,3.1c-0.6,0-1,0.4-1,1s0.4,1,1,1c4,0,7.8-1.2,10.9-3.5c0.4-0.3,0.5-0.9,0.2-1.4
		C40.5,45.4,39.8,45.3,39.4,45.6z"/>
        <path class="st1" d="M28.6,46c0,0.6,0.4,1,1,1c3.1,0,6-0.9,8.5-2.7c0.4-0.3,0.5-0.9,0.2-1.4c-0.3-0.4-1-0.5-1.4-0.2c-2.1,1.5-4.7,2.3-7.3,2.3
		C29.1,45,28.6,45.5,28.6,46z"/>
        <ellipse class="st1" cx="29.9" cy="37.5" rx="1.2" ry="0.8"/>
        <ellipse class="st0" cx="30" cy="37.5" rx="5.3" ry="3.8"/>
</g>
</svg>